<svg width="32" height="32" viewBox="0 0 32 32" fill="none" xmlns="http://www.w3.org/2000/svg">
  <path d="M16 32C24.8366 32 32 24.8366 32 16C32 7.16344 24.8366 0 16 0C7.16344 0 0 7.16344 0 16C0 24.8366 7.16344 32 16 32Z" fill="#213147"/>
  <path d="M21.256 22.496L16.632 11.648C16.512 11.408 16.272 11.264 16 11.264C15.728 11.264 15.488 11.408 15.368 11.648L10.744 22.496C10.64 22.704 10.64 22.944 10.744 23.152C10.848 23.36 11.056 23.504 11.296 23.504H20.704C20.944 23.504 21.152 23.36 21.256 23.152C21.36 22.944 21.36 22.704 21.256 22.496ZM16 13.024L19.792 21.984H12.208L16 13.024Z" fill="white"/>
  <path d="M16 8.496C16.552 8.496 17 8.048 17 7.496C17 6.944 16.552 6.496 16 6.496C15.448 6.496 15 6.944 15 7.496C15 8.048 15.448 8.496 16 8.496Z" fill="white"/>
</svg> 