<svg width="32" height="32" viewBox="0 0 32 32" fill="none" xmlns="http://www.w3.org/2000/svg">
  <path d="M16 0C7.164 0 0 7.164 0 16C0 24.836 7.164 32 16 32C24.836 32 32 24.836 32 16C32 7.164 24.836 0 16 0Z" fill="#8247E5"/>
  <path d="M21.092 12.856C20.732 12.656 20.276 12.656 19.868 12.856L16.732 14.728L14.54 15.932L11.404 17.804C11.044 18.004 10.588 18.004 10.18 17.804L7.72 16.36C7.36 16.16 7.096 15.76 7.096 15.32V12.48C7.096 12.04 7.312 11.64 7.72 11.44L10.132 10.04C10.492 9.84 10.948 9.84 11.356 10.04L13.768 11.44C14.128 11.64 14.392 12.04 14.392 12.48V14.352L16.584 13.148V11.276C16.584 10.836 16.368 10.436 15.96 10.236L11.404 7.596C11.044 7.396 10.588 7.396 10.18 7.596L5.528 10.236C5.12 10.436 4.904 10.836 4.904 11.276V16.524C4.904 16.964 5.12 17.364 5.528 17.564L10.18 20.204C10.54 20.404 10.996 20.404 11.404 20.204L14.54 18.38L16.732 17.128L19.868 15.304C20.228 15.104 20.684 15.104 21.092 15.304L23.504 16.704C23.864 16.904 24.128 17.304 24.128 17.744V20.584C24.128 21.024 23.912 21.424 23.504 21.624L21.092 23.024C20.732 23.224 20.276 23.224 19.868 23.024L17.456 21.624C17.096 21.424 16.832 21.024 16.832 20.584V18.712L14.64 19.916V21.788C14.64 22.228 14.856 22.628 15.264 22.828L19.916 25.468C20.276 25.668 20.732 25.668 21.14 25.468L25.792 22.828C26.152 22.628 26.416 22.228 26.416 21.788V16.54C26.416 16.1 26.2 15.7 25.792 15.5L21.092 12.856Z" fill="white"/>
</svg> 